<svg xmlns="http://www.w3.org/2000/svg" xmlns:xlink="http://www.w3.org/1999/xlink" width="64" zoomAndPan="magnify" viewBox="0 0 48 48" height="64" preserveAspectRatio="xMidYMid meet" version="1.0"><defs><clipPath id="e2ee6dd629"><path d="M 0.488281 18 L 13 18 L 13 31 L 0.488281 31 Z M 0.488281 18 " clip-rule="nonzero"/></clipPath><clipPath id="31bec4d0ff"><path d="M 38 18 L 47.507812 18 L 47.507812 31 L 38 31 Z M 38 18 " clip-rule="nonzero"/></clipPath></defs><path fill="#000000" d="M 10.039062 22.777344 L 12.980469 22.777344 L 12.980469 25.714844 L 10.039062 25.714844 M 15.917969 22.777344 L 18.855469 22.777344 L 18.855469 25.714844 L 15.917969 25.714844 M 21.796875 22.777344 L 24.734375 22.777344 L 24.734375 25.714844 L 21.796875 25.714844 M 27.671875 22.777344 L 30.613281 22.777344 L 30.613281 25.714844 L 27.671875 25.714844 M 33.550781 22.777344 L 36.488281 22.777344 L 36.488281 25.714844 L 33.550781 25.714844 M 39.429688 22.777344 L 42.367188 22.777344 L 42.367188 25.714844 L 39.429688 25.714844 M 45.304688 22.777344 L 46.039062 22.777344 L 46.039062 25.714844 L 45.304688 25.714844 " fill-opacity="1" fill-rule="nonzero"/><g clip-path="url(#e2ee6dd629)"><path stroke-linecap="round" transform="matrix(0.734694, 0.000000000000000082, -0.000000000000000082, 0.734694, 0.489796, 22.775511)" fill="none" stroke-linejoin="round" d="M 2.002387 2.001626 L 7.999784 -4.001087 L 14.002496 2.001626 L 7.999784 7.999022 Z M 2.002387 2.001626 " stroke="#000000" stroke-width="4" stroke-opacity="1" stroke-miterlimit="4"/></g><g clip-path="url(#31bec4d0ff)"><path stroke-linecap="round" transform="matrix(0.734694, 0.000000000000000082, -0.000000000000000082, 0.734694, 0.489796, 22.775511)" fill="none" stroke-linejoin="round" d="M 54.001087 -4.001087 L 61.997615 2.001626 L 54.001087 7.999022 " stroke="#000000" stroke-width="4" stroke-opacity="1" stroke-miterlimit="4"/></g></svg>