<svg xmlns="http://www.w3.org/2000/svg" xmlns:xlink="http://www.w3.org/1999/xlink" width="64" zoomAndPan="magnify" viewBox="0 0 48 48" height="64" preserveAspectRatio="xMidYMid meet" version="1.0"><defs><clipPath id="6e23fc9c42"><path d="M 0.488281 16 L 12 16 L 12 28 L 0.488281 28 Z M 0.488281 16 " clip-rule="nonzero"/></clipPath></defs><path fill="#000000" d="M 8.382812 18.667969 L 11.011719 17.359375 L 12.324219 19.988281 L 9.695312 21.300781 M 13.644531 16.046875 L 16.273438 14.738281 L 17.585938 17.367188 L 14.953125 18.679688 M 18.902344 13.425781 L 21.535156 12.117188 L 22.84375 14.746094 L 20.214844 16.058594 M 24.164062 10.804688 L 26.792969 9.496094 L 28.105469 12.125 L 25.476562 13.433594 M 29.425781 8.183594 L 32.054688 6.871094 L 33.367188 9.503906 L 30.734375 10.8125 M 34.683594 5.5625 L 37.316406 4.25 L 38.625 6.882812 L 35.996094 8.191406 M 39.945312 2.941406 L 42.453125 1.691406 L 43.765625 4.320312 L 41.257812 5.570312 " fill-opacity="1" fill-rule="nonzero"/><g clip-path="url(#6e23fc9c42)"><path stroke-linecap="round" transform="matrix(0.657566, -0.327692, 0.327692, 0.657566, -0.165646, 22.929521)" fill="none" stroke-linejoin="round" d="M 1.999429 2.00059 L 8.002447 -4.001731 L 14.000009 1.998916 L 7.996991 8.001236 Z M 1.999429 2.00059 " stroke="#000000" stroke-width="4" stroke-opacity="1" stroke-miterlimit="4"/></g><path stroke-linecap="round" transform="matrix(0.657566, -0.327692, 0.327692, 0.657566, -0.165646, 22.929521)" fill="none" stroke-linejoin="round" d="M 56.81322 -3.99761 L 64.815231 1.997996 L 56.814894 8.00297 " stroke="#000000" stroke-width="4" stroke-opacity="1" stroke-miterlimit="4"/></svg>