<svg xmlns="http://www.w3.org/2000/svg" xmlns:xlink="http://www.w3.org/1999/xlink" width="64" zoomAndPan="magnify" viewBox="0 0 48 48" height="64" preserveAspectRatio="xMidYMid meet" version="1.0"><defs><clipPath id="015847923b"><path d="M 0.488281 20 L 12 20 L 12 33 L 0.488281 33 Z M 0.488281 20 " clip-rule="nonzero"/></clipPath></defs><path fill="#000000" d="M 9.875 26.542969 L 12.589844 27.667969 L 11.464844 30.382812 L 8.75 29.257812 M 15.304688 28.792969 L 18.019531 29.917969 L 16.898438 32.632812 L 14.183594 31.507812 M 20.738281 31.042969 L 23.453125 32.164062 L 22.328125 34.878906 L 19.613281 33.757812 M 26.167969 33.289062 L 28.882812 34.414062 L 27.757812 37.128906 L 25.042969 36.003906 M 31.597656 35.539062 L 34.3125 36.664062 L 33.1875 39.378906 L 30.472656 38.253906 M 37.027344 37.789062 L 39.742188 38.914062 L 38.617188 41.628906 L 35.902344 40.503906 M 42.457031 40.035156 L 43.335938 40.398438 L 42.210938 43.117188 L 41.332031 42.753906 " fill-opacity="1" fill-rule="nonzero"/><g clip-path="url(#015847923b)"><path stroke-linecap="round" transform="matrix(0.678786, 0.281114, -0.281114, 0.678786, 1.051713, 22.888888)" fill="none" stroke-linejoin="round" d="M 2.000705 1.99957 L 7.998354 -4.000469 L 14.000427 2.002093 L 8.000743 7.997219 Z M 2.000705 1.99957 " stroke="#000000" stroke-width="4" stroke-opacity="1" stroke-miterlimit="4"/></g><path stroke-linecap="round" transform="matrix(0.678786, 0.281114, -0.281114, 0.678786, 1.051713, 22.888888)" fill="none" stroke-linejoin="round" d="M 54.290956 -3.997323 L 62.293404 1.99973 L 54.293345 8.000365 " stroke="#000000" stroke-width="4" stroke-opacity="1" stroke-miterlimit="4"/></svg>