<svg xmlns="http://www.w3.org/2000/svg" xmlns:xlink="http://www.w3.org/1999/xlink" width="64" zoomAndPan="magnify" viewBox="0 0 48 48" height="64" preserveAspectRatio="xMidYMid meet" version="1.0"><defs><clipPath id="094732d7a0"><path d="M 0.488281 17 L 13 17 L 13 29 L 0.488281 29 Z M 0.488281 17 " clip-rule="nonzero"/></clipPath><clipPath id="2b63d16cc8"><path d="M 37 9 L 47.507812 9 L 47.507812 22 L 37 22 Z M 37 9 " clip-rule="nonzero"/></clipPath></defs><path fill="#000000" d="M 9.507812 20.765625 L 12.375 20.140625 L 13.003906 23.011719 L 10.132812 23.636719 M 15.246094 19.511719 L 18.117188 18.882812 L 18.746094 21.753906 L 15.875 22.382812 M 20.988281 18.253906 L 23.859375 17.628906 L 24.488281 20.496094 L 21.617188 21.125 M 26.730469 17 L 29.601562 16.371094 L 30.230469 19.242188 L 27.359375 19.871094 M 32.472656 15.742188 L 35.34375 15.113281 L 35.972656 17.984375 L 33.101562 18.613281 M 38.214844 14.488281 L 41.085938 13.859375 L 41.714844 16.730469 L 38.84375 17.359375 M 43.957031 13.230469 L 45.761719 12.835938 L 46.386719 15.707031 L 44.585938 16.101562 " fill-opacity="1" fill-rule="nonzero"/><g clip-path="url(#094732d7a0)"><path stroke-linecap="round" transform="matrix(0.71772, -0.157012, 0.157012, 0.71772, 0.175657, 22.808395)" fill="none" stroke-linejoin="round" d="M 2.000914 2.000027 L 8.000094 -4.002393 L 14.001377 2.001981 L 7.998139 7.99807 Z M 2.000914 2.000027 " stroke="#000000" stroke-width="4" stroke-opacity="1" stroke-miterlimit="4"/></g><g clip-path="url(#2b63d16cc8)"><path stroke-linecap="round" transform="matrix(0.71772, -0.157012, 0.157012, 0.71772, 0.175657, 22.808395)" fill="none" stroke-linejoin="round" d="M 55.512895 -3.998153 L 63.513552 1.997322 L 55.512077 7.997116 " stroke="#000000" stroke-width="4" stroke-opacity="1" stroke-miterlimit="4"/></g></svg>