<svg xmlns="http://www.w3.org/2000/svg" xmlns:xlink="http://www.w3.org/1999/xlink" width="64" zoomAndPan="magnify" viewBox="0 0 48 48" height="64" preserveAspectRatio="xMidYMid meet" version="1.0"><defs><clipPath id="836e80e686"><path d="M 0.488281 19 L 13 19 L 13 32 L 0.488281 32 Z M 0.488281 19 " clip-rule="nonzero"/></clipPath><clipPath id="7dbcf2c5a1"><path d="M 37 26 L 47.507812 26 L 47.507812 39 L 37 39 Z M 37 26 " clip-rule="nonzero"/></clipPath></defs><path fill="#000000" d="M 10.136719 24.792969 L 13.011719 25.402344 L 12.402344 28.277344 L 9.527344 27.667969 M 15.886719 26.015625 L 18.761719 26.625 L 18.152344 29.5 L 15.277344 28.890625 M 21.636719 27.238281 L 24.511719 27.847656 L 23.898438 30.722656 L 21.023438 30.109375 M 27.386719 28.457031 L 30.257812 29.070312 L 29.648438 31.945312 L 26.773438 31.332031 M 33.132812 29.679688 L 36.007812 30.289062 L 35.398438 33.164062 L 32.523438 32.554688 M 38.882812 30.902344 L 41.757812 31.511719 L 41.148438 34.386719 L 38.273438 33.777344 M 44.632812 32.125 L 46.378906 32.496094 L 45.765625 35.367188 L 44.023438 34.996094 " fill-opacity="1" fill-rule="nonzero"/><g clip-path="url(#836e80e686)"><path stroke-linecap="round" transform="matrix(0.718648, 0.15271, -0.15271, 0.718648, 0.795158, 22.808148)" fill="none" stroke-linejoin="round" d="M 1.998309 2.000246 L 8.001713 -3.998949 L 13.999803 1.999254 L 8.0016 7.997344 Z M 1.998309 2.000246 " stroke="#000000" stroke-width="4" stroke-opacity="1" stroke-miterlimit="4"/></g><g clip-path="url(#7dbcf2c5a1)"><path stroke-linecap="round" transform="matrix(0.718648, 0.15271, -0.15271, 0.718648, 0.795158, 22.808148)" fill="none" stroke-linejoin="round" d="M 55.4269 -3.999084 L 63.431361 2.002183 L 55.427892 8.00241 " stroke="#000000" stroke-width="4" stroke-opacity="1" stroke-miterlimit="4"/></g></svg>